<svg width="520" height="360"><path class="path" d="M40,320L480,40"></path><circle cx="101.6" cy="269.6" r="5"></circle><circle cx="154.4" cy="258.40000000000003" r="5"></circle><circle cx="207.20000000000002" cy="208" r="5"></circle><circle cx="268.8" cy="180" r="5"></circle><circle cx="295.2" cy="149.20000000000002" r="5"></circle><circle cx="356.79999999999995" cy="124.00000000000001" r="5"></circle><circle cx="374.40000000000003" cy="112.80000000000001" r="5"></circle><circle cx="387.6" cy="95.99999999999999" r="5"></circle><circle cx="427.20000000000005" cy="65.20000000000002" r="5"></circle><circle cx="471.20000000000005" cy="40" r="5"></circle><g class="axis" transform="translate(0,320)"><g class="tick" transform="translate(40,0)" style="opacity: 1;"><line y2="6" x2="0"></line><text dy=".71em" y="9" x="0" style="text-anchor: middle;">0</text></g><g class="tick" transform="translate(128,0)" style="opacity: 1;"><line y2="6" x2="0"></line><text dy=".71em" y="9" x="0" style="text-anchor: middle;">1</text></g><g class="tick" transform="translate(216,0)" style="opacity: 1;"><line y2="6" x2="0"></line><text dy=".71em" y="9" x="0" style="text-anchor: middle;">2</text></g><g class="tick" transform="translate(304,0)" style="opacity: 1;"><line y2="6" x2="0"></line><text dy=".71em" y="9" x="0" style="text-anchor: middle;">3</text></g><g class="tick" transform="translate(392,0)" style="opacity: 1;"><line y2="6" x2="0"></line><text dy=".71em" y="9" x="0" style="text-anchor: middle;">4</text></g><g class="tick" transform="translate(480,0)" style="opacity: 1;"><line y2="6" x2="0"></line><text dy=".71em" y="9" x="0" style="text-anchor: middle;">5</text></g><path class="domain" d="M40,6V0H480V6"></path></g><text class="axisLabel" x="260" y="357">x</text><g class="axis" transform="translate(40, 0)"><g class="tick" transform="translate(0,320)" style="opacity: 1;"><line x2="-6" y2="0"></line><text dy=".32em" x="-9" y="0" style="text-anchor: end;">0</text></g><g class="tick" transform="translate(0,292)" style="opacity: 1;"><line x2="-6" y2="0"></line><text dy=".32em" x="-9" y="0" style="text-anchor: end;">1</text></g><g class="tick" transform="translate(0,264)" style="opacity: 1;"><line x2="-6" y2="0"></line><text dy=".32em" x="-9" y="0" style="text-anchor: end;">2</text></g><g class="tick" transform="translate(0,236)" style="opacity: 1;"><line x2="-6" y2="0"></line><text dy=".32em" x="-9" y="0" style="text-anchor: end;">3</text></g><g class="tick" transform="translate(0,208)" style="opacity: 1;"><line x2="-6" y2="0"></line><text dy=".32em" x="-9" y="0" style="text-anchor: end;">4</text></g><g class="tick" transform="translate(0,180)" style="opacity: 1;"><line x2="-6" y2="0"></line><text dy=".32em" x="-9" y="0" style="text-anchor: end;">5</text></g><g class="tick" transform="translate(0,152)" style="opacity: 1;"><line x2="-6" y2="0"></line><text dy=".32em" x="-9" y="0" style="text-anchor: end;">6</text></g><g class="tick" transform="translate(0,124.00000000000001)" style="opacity: 1;"><line x2="-6" y2="0"></line><text dy=".32em" x="-9" y="0" style="text-anchor: end;">7</text></g><g class="tick" transform="translate(0,95.99999999999999)" style="opacity: 1;"><line x2="-6" y2="0"></line><text dy=".32em" x="-9" y="0" style="text-anchor: end;">8</text></g><g class="tick" transform="translate(0,68)" style="opacity: 1;"><line x2="-6" y2="0"></line><text dy=".32em" x="-9" y="0" style="text-anchor: end;">9</text></g><g class="tick" transform="translate(0,40)" style="opacity: 1;"><line x2="-6" y2="0"></line><text dy=".32em" x="-9" y="0" style="text-anchor: end;">10</text></g><path class="domain" d="M-6,40H0V320H-6"></path></g><text class="axisLabel" x="2" y="180">y</text></svg>
