<svg width="520" height="360"><path class="path" d="M40,12947.550627999999L40.88,12354.008600295576L41.760000000000005,11783.748930240756L42.64,11236.014446066483L43.519999999999996,10710.068060934105L44.4,10205.19234849147L45.279999999999994,9720.689125317602L46.16,9255.879040175092L47.04,8810.101169990052L47.92,8382.712622480038L48.800000000000004,7973.088145350963L49.67999999999999,7580.619741984643L50.56,7204.716293539193L51.44,6844.803187385111L52.31999999999999,6500.321951800487L53.199999999999996,6170.72989684934L54.08,5855.499761367722L54.96,5554.119365982789L55.84,5266.091272090624L56.72,4990.932446719216L57.599999999999994,4728.173933203559L58.48,4477.360527600381L59.35999999999999,4238.050460770703L60.239999999999995,4009.815086058874L61.12,3792.2385724973756L62,3584.9176034672773L62.88,3387.4610807447407L63.76,3199.489833864566L64.64,3020.6363347323495L65.52,2850.5444174173936L66.39999999999999,2688.8690030589887L67.28,2535.2758298194076L68.16,2389.441187817331L69.03999999999999,2251.051658976093L69.92,2119.8038617216744L70.8,1995.404200465865L71.68,1877.5686198106343L72.56,1766.0223634102456L73.44,1660.49973742822L74.32,1560.7438785268043L75.2,1466.50652632707L76.07999999999998,1377.5478002784296L76.96,1293.635980876774L77.84,1214.5472951710185L78.72,1140.0657064983814L79.6,1069.9827083892471L80.47999999999999,1004.0971225829401L81.36,942.2149010963642L82.24000000000001,884.1489322878504L83.12,829.7188508591937L84,778.7508517393046L84.88,731.0775077934638L85.76,686.5375913026285L86.64,644.9758991577185L87.52000000000001,606.2430817146003L88.4,570.1954752553982L89.28,536.6949380030617L90.16,505.6086896357981L91.03999999999999,476.8091542491509L91.92,450.1738067135964L92.8,425.585022376227L93.68,402.9299300553346L94.56,382.10026827765273L95.44,362.99224470797003L96.32,345.5063987216779L97.2,329.54746707115214L98.08,315.0242525975002L98.96000000000001,301.84949593925717L99.84,289.93975019081677L100.72,279.2152584631292L101.6,269.5998343000854L102.47999999999999,261.0207449043289L103.35999999999999,253.4085971269567L104.24,246.6972261753997L105.11999999999999,240.82358699519295L106,235.7276482807381L106.88,231.35228907173473L107.75999999999999,227.64319789123124L108.63999999999999,224.54877438283052L109.52000000000001,222.02003340411534L110.4,220.0105115345675L111.28,218.476175955994L112.16,217.37533566452362L113.03999999999999,216.6685549732763L113.91999999999999,216.31856926539854L114.8,216.290202957847L115.67999999999999,216.55028963594464L116.56,217.06759432036483L117.44,217.8127378273955L118.32,218.75812318475596L119.19999999999999,219.87786406494592L120.08,221.14771519915644L120.96,222.54500473454368L121.84,224.0485684986404L122.72,225.6386861347562L123.60000000000001,227.29701907299454L124.47999999999999,229.00655030120902L125.36000000000001,230.7515259018062L126.24000000000001,232.51739831914415L127.12,234.29077132443376L128,236.05934664399933L128.88,237.81187221807954L129.76,239.53809205691027L130.64000000000001,241.22869766243525L131.52,242.8752809831119L132.4,244.47028887038755L133.28,246.00697900595583L134.16000000000003,247.47937726843224L135.04000000000002,248.88223650951363L135.92000000000002,250.21099670945728L136.8,251.4617464822502L137.68,252.63118590124645L138.56,253.71659061585956L139.44,254.71577723213773L140.32,255.62706992741437L141.2,256.44926827249833L142.07999999999998,257.1816162335824L142.95999999999998,257.8237723267746L143.84,258.3757808988055L144.72,258.8380445072114L145.6,259.211297374565L146.48,259.49657989116054L147.36,259.6952141400386L148.24,259.8087804209724L149.12,259.8390947472624L150,259.78818729277623L150.88,259.65828176376885L151.76,259.4517756737848L152.64,259.1712214964962L153.52,258.81930867593724L154.4,258.3988464691163L155.28,257.91274760193005L156.16,257.3640127129154L157.04000000000002,256.7557155669863L157.92000000000002,256.0909890159062L158.8,255.373011684537L159.68,254.60499536432576L160.56,253.79017309100777L161.44,252.93178788978253L162.32,252.03308216552682L163.2,251.0972877214033L164.07999999999998,250.127616384804L164.95999999999998,249.12725122370716L165.84,248.0993383341945L166.71999999999997,247.0469791813673L167.6,245.97322347639488L168.48,244.8810625712074L169.36,243.77342335621574L170.23999999999998,242.65316264063472L171.12,241.5230620020145L172,240.38582308827495L172.88,239.24406335462004L173.76,238.1003122213649L174.64,236.95700763784112L175.52,235.81649303443987L176.4,234.68101465249197L177.27999999999997,233.552719232325L178.16,232.43365205083933L179.04000000000002,231.32575529026758L179.92000000000002,230.23086672528257L180.79999999999998,229.1507187188788L181.68,228.08693750670568L182.56,227.0410427658287L183.44,226.01444744694777L184.31999999999996,225.00845786332388L185.2,224.02427402275202L186.07999999999998,223.06299019020366L186.95999999999998,222.1255956691573L187.83999999999997,221.21297579328962L188.71999999999997,220.3259131130569L189.6,219.4650887701889L190.48,218.63108404761692L191.35999999999999,217.8243820843952L192.23999999999998,217.04536974807775L193.12,216.2943396492708L194,215.5714922960185L194.88,214.87693837274196L195.76,214.21070113669043L196.64,213.57271892435415L197.52,212.96284775718118L198.39999999999998,212.38086403914963L199.28,211.82646733707838L200.16,211.29928323644413L201.04000000000002,210.79886626786606L201.92,210.32470288678883L202.79999999999998,209.87621451425798L203.68,209.45276061647996L204.56,209.0536418270883L205.44,208.67810310005802L206.32,208.325336886978L207.20000000000002,207.99448633612224L208.08,207.68464850191117L208.95999999999998,207.39487756271296L209.84,207.1241880416626L210.72,206.8715580187843L211.60000000000002,206.63593233938332L212.48,206.41622580397484L213.36,206.21132633990305L214.24,206.0200981494297L215.12,205.8413848274165L216,205.6740124481173L216.88,205.51679261142885L217.76000000000002,205.36852545140096L218.64,205.22800259462997L219.52,205.0940100758187L220.39999999999998,204.9653311944337L221.28000000000003,204.8407493197435L222.16,204.71905063550253L223.04000000000002,204.59902682086863L223.92,204.47947766976972L224.8,204.3592136395007L225.68,204.23705833035888L226.56,204.11185088954403L227.44,203.98244834861794L228.32000000000002,203.84772787389625L229.20000000000002,203.70658894253097L230.08,203.55795543791714L230.95999999999998,203.40077766287027L231.84000000000003,203.23403426665277L232.72000000000003,203.05673408959296L233.60000000000002,202.86791791699466L234.48,202.66666015183614L235.36000000000004,202.45207038899275L236.24,202.22329491107553L237.12,201.97951808383255L238,201.71996367074712L238.88,201.44389604327694L239.76000000000002,201.15062131332047L240.64,200.83948836295417L241.52,200.50988978771306L242.39999999999998,200.16126274574958L243.28000000000003,199.79308971516252L244.15999999999997,199.40489916138063L245.04000000000002,198.99626610578957L245.92,198.56681261426888L246.8,198.1162081885766L247.68,197.6441700635612L248.56,197.15046342644814L249.44,196.63490153841371L250.32000000000002,196.09734576970254L251.2,195.53770555243932L252.08,194.95593824609273L252.95999999999998,194.35204891510762L253.84000000000003,193.72609002670174L254.72,193.0781610689544L255.60000000000002,192.40840808557073L256.48,191.71702312750017L257.36,191.00424364111927L258.24,190.27035176422828L259.12,189.51567355955444L260,188.74057817101743L260.88,187.94547691301955L261.76,187.13082228720918L262.64,186.29710693629272L263.52,185.444862535506L264.40000000000003,184.57465861181367L265.28,183.6871013179068L266.15999999999997,182.78283213576174L267.04,181.86252653242514L267.92,180.92689255241453L268.8,179.97666937764984L269.68,179.01262581944206L270.56,178.03555876968562L271.44,177.04629161983644L272.32,176.04567262297383L273.2,175.0345732281046L274.08000000000004,174.01388636832303L274.96,172.98452473111934L275.84000000000003,171.9474189814489L276.72,170.9035159606599L277.6,169.85377687732284L278.48,168.79917544486193L279.36,167.7406960211472L280.24,166.67933173031156L281.12,165.6160825594077L282,164.55195344961498L282.88,163.48795237736226L283.76,162.42508843359133L284.64,161.36436988595847L285.52000000000004,160.30680226482104L286.4,159.25338642360543L287.28000000000003,158.20511662731474L288.15999999999997,157.16297863309114L289.04,156.1279477900814L289.91999999999996,155.10098714925948L290.8,154.08304559099884L291.68,153.07505597775412L292.56000000000006,152.07793330776144L293.43999999999994,151.09257291557037L294.32000000000005,150.11984869643743L295.2,149.1606113537407L296.08000000000004,148.2156866640678L296.96,147.28587381928696L297.84000000000003,146.37194377557057L298.72,145.47463762936127L299.6,144.5946650864414L300.47999999999996,143.73270291712356L301.36000000000007,142.88939351210752L302.24,142.06534344831994L303.12,141.2611221327304L304,140.47726049340667L304.88,139.71424971788542L305.76,138.97254007883998L306.64,138.25253978175056L307.52,137.55461391678068L308.40000000000003,136.87908345990468L309.28,136.22622432214007L310.15999999999997,135.59626651149188L311.04,134.9893933230112L311.91999999999996,134.40574065676878L312.8,133.84539633890995L313.68,133.308399585522L314.56,132.794740530421L315.44,132.30435979039862L316.32,131.8371481851234L317.2,131.39294647705788L318.08000000000004,130.97154523870518L318.96,130.57268477646608L319.84000000000003,130.19605517044215L320.72,129.841296385747L321.59999999999997,129.50799846749828L322.48,129.19570184661166L323.36,128.90389772833328L324.24,128.63202855640588L325.12,128.37948861515792L326,128.14562465784797L326.88,127.92973670639437L327.76,127.73107886806497L328.63999999999993,127.54886032895115L329.52000000000004,127.38224635490293L330.4,127.2303594595203L331.28,127.09228062536819L332.15999999999997,126.96705064477896L333.04,126.85367152498178L333.92,126.75110802685116L334.8,126.65828925440906L335.67999999999995,126.57411037476298L336.56000000000006,126.49743439916233L337.43999999999994,126.42709406833706L338.32,126.3618938507268L339.2,126.3006119618974L340.08000000000004,126.24200256685323L340.96,126.1847979682668L341.84000000000003,126.12771096117899L342.71999999999997,126.06943722177196L343.6,126.00865779617266L344.47999999999996,125.94404164301409L345.36,125.87424829051702L346.24,125.7979305608012L347.12,125.71373730229493L348,125.62031629936132L348.88,125.51631714958307L349.75999999999993,125.40039425829195L350.64,125.27120987384365L351.52,125.12743720020694L352.4,124.96776350746472L353.28,124.79089336966967L354.15999999999997,124.59555190234344L355.04,124.38048799895728L355.91999999999996,124.14447774809264L356.79999999999995,123.88632768397908L357.68,123.60487823994366L358.56,123.29900714558131L359.44,122.96763281493509L360.32,122.60971782719456L361.2,122.22427238218256L362.08000000000004,121.8103577126519L362.96,121.36708953424635L363.84,120.89364157269915L364.72,120.3892488422814L365.59999999999997,119.85321120269394L366.47999999999996,119.28489660708397L367.36,118.68374458152061L368.24,118.04926937794765L369.12,117.38106337649765L370,116.67880018257233L370.88,115.94223782313816L371.76,115.17122177767192L372.64,114.36568803115985L373.52000000000004,113.52566588601145L374.40000000000003,112.65128085739957L375.28,111.74275734885555L376.16,110.80042124998978L377.04,109.82470237487246L377.91999999999996,108.81613689274924L378.8,107.77536944659619L379.68,106.7031552604701L380.56,105.60036199484853L381.44,104.46797151110762L382.32,103.30708140701131L383.20000000000005,102.11890634989938L384.08000000000004,100.90477927113784L384.96,99.66615224708472L385.84000000000003,98.40459728134988L386.72,97.12180673399668L387.6,95.81959356199036L388.48,94.49989133264421L389.36,93.16475383821921L390.24000000000007,91.81635460509528L391.12,90.4569859201099L392,89.08905770033267L392.88,87.71509590236633L393.75999999999993,86.33774073978816L394.64,84.95974439463566L395.52000000000004,83.58396846358914L396.4,82.21338097454532L397.28,80.85105305410504L398.16,79.50015514782966L399.04,78.16395275012724L399.92,76.84580182141758L400.79999999999995,75.54914369210995L401.68000000000006,74.27749938453303L402.56000000000006,73.03446364664228L403.43999999999994,71.82369828073092L404.32,70.64892504242994L405.20000000000005,69.51391803573894L406.08,68.42249542465538L406.96,67.37851061710057L407.84,66.38584296076691L408.72,65.44838762415996L409.6,64.57004490715438L410.47999999999996,63.75470909993851L411.36,63.006256277791856L412.24,62.32853173541912L413.12,61.72533656624251L414,61.200413508074L414.88,60.75743202053376L415.76,60.39997266068054L416.64000000000004,60.13151044688381L417.52,59.95539785013055L418.40000000000003,59.874846256515184L419.2799999999999,59.89290730061725L420.16,60.012452688550866L421.04,60.23615352264711L421.91999999999996,60.566458482261396L422.79999999999995,61.00557106876181L423.68000000000006,61.555425966903144L424.56,62.21766420971359L425.44,62.99360747244894L426.31999999999994,63.884231254402714L427.20000000000005,64.890136952238L428.08000000000004,66.01152281918871L428.96,67.24815371605904L429.84,68.59932991586061L430.7200000000001,70.06385450971241L431.59999999999997,71.63999957846204L432.48,73.32547124538792L433.35999999999996,75.11737343039816L434.24,77.01217008778872L435.12,79.00564651088165L436,81.09286882945412L436.88,83.26814240143972L437.76,85.52496859416965L438.64,87.85600042708641L439.52000000000004,90.25299624986904L440.4,92.70677224505448L441.28,95.20715334709053L442.16,97.74292241020407L443.04,100.30176792155795L443.92,102.87022999205033L444.79999999999995,105.43364476583771L445.68,107.97608678698704L446.56000000000006,110.48031017427523L447.43999999999994,112.92768747498006L448.31999999999994,115.29814692440664L449.20000000000005,117.57010787732246L450.08,119.72041443294688L450.96,121.72426668509684L451.84,123.55515074447136L452.72,125.18476590529713L453.6,126.58295064120718L454.47999999999996,127.71760566612897L455.36,128.55461560794606L456.24000000000007,129.05776812747604L457.12,129.1886709780763L458,128.90666664125706L458.88,128.1687449299668L459.75999999999993,126.92945328828752L460.64000000000004,125.14080447940319L461.52,122.7521820282443L462.4,119.71024337974337L463.28,115.95882023608534L464.16,111.43881653256062L465.04,106.08810415760193L465.91999999999996,99.84141540331142L466.79999999999995,92.63023334423882L467.68000000000006,84.3826791550116L468.56,75.02339701451523L469.44,64.47343578421237L470.32,52.65012836198979L471.20000000000005,39.466967559713126L472.08000000000004,24.83347964235398L472.96,8.655094443131716L473.84,-9.166987182322586L474.7200000000001,-28.73592934870723L475.59999999999997,-50.159400104739035L476.47999999999996,-73.54971335964115L477.36,-99.02397434042109L478.24,-126.70422819081912L479.12,-156.71761190582515"></path><circle cx="101.6" cy="269.6" r="5"></circle><circle cx="154.4" cy="258.40000000000003" r="5"></circle><circle cx="207.20000000000002" cy="208" r="5"></circle><circle cx="268.8" cy="180" r="5"></circle><circle cx="295.2" cy="149.20000000000002" r="5"></circle><circle cx="356.79999999999995" cy="124.00000000000001" r="5"></circle><circle cx="374.40000000000003" cy="112.80000000000001" r="5"></circle><circle cx="387.6" cy="95.99999999999999" r="5"></circle><circle cx="427.20000000000005" cy="65.20000000000002" r="5"></circle><circle cx="471.20000000000005" cy="40" r="5"></circle><g class="axis" transform="translate(0,320)"><g class="tick" transform="translate(40,0)" style="opacity: 1;"><line y2="6" x2="0"></line><text dy=".71em" y="9" x="0" style="text-anchor: middle;">0</text></g><g class="tick" transform="translate(128,0)" style="opacity: 1;"><line y2="6" x2="0"></line><text dy=".71em" y="9" x="0" style="text-anchor: middle;">1</text></g><g class="tick" transform="translate(216,0)" style="opacity: 1;"><line y2="6" x2="0"></line><text dy=".71em" y="9" x="0" style="text-anchor: middle;">2</text></g><g class="tick" transform="translate(304,0)" style="opacity: 1;"><line y2="6" x2="0"></line><text dy=".71em" y="9" x="0" style="text-anchor: middle;">3</text></g><g class="tick" transform="translate(392,0)" style="opacity: 1;"><line y2="6" x2="0"></line><text dy=".71em" y="9" x="0" style="text-anchor: middle;">4</text></g><g class="tick" transform="translate(480,0)" style="opacity: 1;"><line y2="6" x2="0"></line><text dy=".71em" y="9" x="0" style="text-anchor: middle;">5</text></g><path class="domain" d="M40,6V0H480V6"></path></g><text class="axisLabel" x="260" y="357">x</text><g class="axis" transform="translate(40, 0)"><g class="tick" transform="translate(0,320)" style="opacity: 1;"><line x2="-6" y2="0"></line><text dy=".32em" x="-9" y="0" style="text-anchor: end;">0</text></g><g class="tick" transform="translate(0,292)" style="opacity: 1;"><line x2="-6" y2="0"></line><text dy=".32em" x="-9" y="0" style="text-anchor: end;">1</text></g><g class="tick" transform="translate(0,264)" style="opacity: 1;"><line x2="-6" y2="0"></line><text dy=".32em" x="-9" y="0" style="text-anchor: end;">2</text></g><g class="tick" transform="translate(0,236)" style="opacity: 1;"><line x2="-6" y2="0"></line><text dy=".32em" x="-9" y="0" style="text-anchor: end;">3</text></g><g class="tick" transform="translate(0,208)" style="opacity: 1;"><line x2="-6" y2="0"></line><text dy=".32em" x="-9" y="0" style="text-anchor: end;">4</text></g><g class="tick" transform="translate(0,180)" style="opacity: 1;"><line x2="-6" y2="0"></line><text dy=".32em" x="-9" y="0" style="text-anchor: end;">5</text></g><g class="tick" transform="translate(0,152)" style="opacity: 1;"><line x2="-6" y2="0"></line><text dy=".32em" x="-9" y="0" style="text-anchor: end;">6</text></g><g class="tick" transform="translate(0,124.00000000000001)" style="opacity: 1;"><line x2="-6" y2="0"></line><text dy=".32em" x="-9" y="0" style="text-anchor: end;">7</text></g><g class="tick" transform="translate(0,95.99999999999999)" style="opacity: 1;"><line x2="-6" y2="0"></line><text dy=".32em" x="-9" y="0" style="text-anchor: end;">8</text></g><g class="tick" transform="translate(0,68)" style="opacity: 1;"><line x2="-6" y2="0"></line><text dy=".32em" x="-9" y="0" style="text-anchor: end;">9</text></g><g class="tick" transform="translate(0,40)" style="opacity: 1;"><line x2="-6" y2="0"></line><text dy=".32em" x="-9" y="0" style="text-anchor: end;">10</text></g><path class="domain" d="M-6,40H0V320H-6"></path></g><text class="axisLabel" x="2" y="180">y</text></svg>
